<svg xmlns="http://www.w3.org/2000/svg" xmlns:xlink="http://www.w3.org/1999/xlink" width="2993" height="3427" overflow="hidden"><defs><clipPath id="clip0"><rect width="2993" height="3427" x="325" y="-302"/></clipPath><linearGradient id="fill1" x1="1606" x2="1606" y1="1083.5" y2="944.5" gradientUnits="userSpaceOnUse" spreadMethod="reflect"><stop offset="0" stop-color="#B9D6E5" stop-opacity="1"/><stop offset=".6" stop-color="#D7F3A2" stop-opacity="1"/><stop offset="1" stop-color="#D7F3A2" stop-opacity="1"/></linearGradient><linearGradient id="fill2" x1="1606" x2="1606" y1="679.5" y2="540.5" gradientUnits="userSpaceOnUse" spreadMethod="reflect"><stop offset="0" stop-color="#D7F3A2" stop-opacity="1"/><stop offset=".16" stop-color="#D7F3A2" stop-opacity="1"/><stop offset="1" stop-color="#B9D6E5" stop-opacity="1"/></linearGradient><linearGradient id="fill3" x1="2264" x2="2264" y1="1086.5" y2="947.5" gradientUnits="userSpaceOnUse" spreadMethod="reflect"><stop offset="0" stop-color="#B9D6E5" stop-opacity="1"/><stop offset=".6" stop-color="#D7F3A2" stop-opacity="1"/><stop offset="1" stop-color="#D7F3A2" stop-opacity="1"/></linearGradient><linearGradient id="fill4" x1="2264" x2="2264" y1="2247.5" y2="2107.5" gradientUnits="userSpaceOnUse" spreadMethod="reflect"><stop offset="0" stop-color="#B9D6E5" stop-opacity="1"/><stop offset=".6" stop-color="#D7F3A2" stop-opacity="1"/><stop offset="1" stop-color="#D7F3A2" stop-opacity="1"/></linearGradient><linearGradient id="fill5" x1="2797.5" x2="2797.5" y1="2248.5" y2="2108.5" gradientUnits="userSpaceOnUse" spreadMethod="reflect"><stop offset="0" stop-color="#B9D6E5" stop-opacity="1"/><stop offset=".6" stop-color="#D7F3A2" stop-opacity="1"/><stop offset="1" stop-color="#D7F3A2" stop-opacity="1"/></linearGradient></defs><g clip-path="url(#clip0)" transform="translate(-325 302)"><rect width="2973" height="837" x="342.5" y="736.5" fill="#E9E9E9" fill-opacity="1" stroke="#E9E9E9" stroke-linecap="butt" stroke-linejoin="miter" stroke-miterlimit="4" stroke-opacity="1" stroke-width="4.583"/><text fill="#000" fill-opacity="1" direction="ltr" font-family="Intel Clear,Intel Clear_MSFontService,sans-serif" font-size="55" font-stretch="normal" font-style="normal" font-variant="normal" font-weight="400" text-anchor="start" text-decoration="none" transform="matrix(1 0 0 1 360.556 809)" unicode-bidi="normal" writing-mode="lr-tb">Dequantization</text><rect width="2973" height="1370" x="342.5" y="1606.5" fill="#E9E9E9" fill-opacity="1" stroke="#E9E9E9" stroke-linecap="butt" stroke-linejoin="miter" stroke-miterlimit="4" stroke-opacity="1" stroke-width="4.583"/><text fill="#000" fill-opacity="1" direction="ltr" font-family="Intel Clear,Intel Clear_MSFontService,sans-serif" font-size="55" font-stretch="normal" font-style="normal" font-variant="normal" font-weight="400" text-anchor="start" text-decoration="none" transform="matrix(1 0 0 1 360.556 1682)" unicode-bidi="normal" writing-mode="lr-tb">FP32 Convolution with quantized <tspan x="843.906" y="0" fill="#000" fill-opacity="1" direction="ltr" font-family="Intel Clear,Intel Clear_MSFontService,sans-serif" font-size="55" font-stretch="normal" font-style="normal" font-variant="normal" font-weight="400" text-anchor="start" text-decoration="none" unicode-bidi="normal" writing-mode="lr-tb">weights</tspan></text><rect width="2973" height="837" x="342.5" y="-129.5" fill="#E9E9E9" fill-opacity="1" stroke="#E9E9E9" stroke-linecap="butt" stroke-linejoin="miter" stroke-miterlimit="4" stroke-opacity="1" stroke-width="4.583"/><text fill="#000" fill-opacity="1" direction="ltr" font-family="Intel Clear,Intel Clear_MSFontService,sans-serif" font-size="55" font-stretch="normal" font-style="normal" font-variant="normal" font-weight="400" text-anchor="start" text-decoration="none" transform="matrix(1 0 0 1 360.556 -57)" unicode-bidi="normal" writing-mode="lr-tb">Q<tspan x="41.823" y="0" fill="#000" fill-opacity="1" direction="ltr" font-family="Intel Clear,Intel Clear_MSFontService,sans-serif" font-size="55" font-stretch="normal" font-style="normal" font-variant="normal" font-weight="400" text-anchor="start" text-decoration="none" unicode-bidi="normal" writing-mode="lr-tb">uantization</tspan></text><path fill="#B9D6E5" fill-opacity="1" fill-rule="evenodd" stroke="#0068B5" stroke-linecap="butt" stroke-linejoin="miter" stroke-miterlimit="4" stroke-opacity="1" stroke-width="4.583" d="M1361.5 322.834C1361.5 305.529 1375.53 291.5 1392.83 291.5L1819.17 291.5C1836.47 291.5 1850.5 305.529 1850.5 322.834L1850.5 448.166C1850.5 465.471 1836.47 479.5 1819.17 479.5L1392.83 479.5C1375.53 479.5 1361.5 465.471 1361.5 448.166Z"/><text fill="#000" fill-opacity="1" direction="ltr" font-family="Intel Clear,Intel Clear_MSFontService,sans-serif" font-size="37" font-stretch="normal" font-style="normal" font-variant="normal" font-weight="400" text-anchor="start" text-decoration="none" transform="matrix(1 0 0 1 1492.17 353)" unicode-bidi="normal" writing-mode="lr-tb">FakeQuantize<tspan x="24.337" y="44" fill="#000" fill-opacity="1" direction="ltr" font-family="Intel Clear,Intel Clear_MSFontService,sans-serif" font-size="37" font-stretch="normal" font-style="normal" font-variant="normal" font-weight="400" text-anchor="start" text-decoration="none" unicode-bidi="normal" writing-mode="lr-tb">levels: 256</tspan><tspan x="-59.308" y="88" fill="#000" fill-opacity="1" direction="ltr" font-family="Intel Clear,Intel Clear_MSFontService,sans-serif" font-size="37" font-stretch="normal" font-style="normal" font-variant="normal" font-weight="400" text-anchor="start" text-decoration="none" unicode-bidi="normal" writing-mode="lr-tb">{f32} {1, 3, 299, 299}</tspan></text><path fill="#B9D6E5" fill-opacity="1" fill-rule="evenodd" stroke="#0068B5" stroke-linecap="butt" stroke-linejoin="miter" stroke-miterlimit="4" stroke-opacity="1" stroke-width="4.583" d="M1361.5-275.333C1361.5-288.128 1371.87-298.5 1384.67-298.5L1827.33-298.5C1840.13-298.5 1850.5-288.128 1850.5-275.333L1850.5-182.667C1850.5-169.872 1840.13-159.5 1827.33-159.5L1384.67-159.5C1371.87-159.5 1361.5-169.872 1361.5-182.667Z"/><text fill="#000" fill-opacity="1" direction="ltr" font-family="Intel Clear,Intel Clear_MSFontService,sans-serif" font-size="37" font-stretch="normal" font-style="normal" font-variant="normal" font-weight="400" text-anchor="start" text-decoration="none" transform="matrix(1 0 0 1 1519.94 -239)" unicode-bidi="normal" writing-mode="lr-tb">Parameter<tspan x="-87.083" y="44" fill="#000" fill-opacity="1" direction="ltr" font-family="Intel Clear,Intel Clear_MSFontService,sans-serif" font-size="37" font-stretch="normal" font-style="normal" font-variant="normal" font-weight="400" text-anchor="start" text-decoration="none" unicode-bidi="normal" writing-mode="lr-tb">{f32} {1, 3, 299, 299}</tspan></text><path fill="gray" fill-opacity="1" fill-rule="nonzero" d="M1611.08-159.5 1611.08 272.504 1601.92 272.504 1601.92-159.5ZM1606.5 272.504 1620.25 263.337 1606.5 290.837 1592.75 263.337Z"/><path fill="gray" fill-opacity="1" fill-rule="nonzero" d="M2.70824-3.69762 283.839 202.21 278.422 209.605-2.70824 3.69762ZM281.13 205.907 281.86 189.398 295.921 216.74 265.61 211.584Z" transform="matrix(-1 0 0 1 1902.42 74.5001)"/><path fill="gray" fill-opacity="1" fill-rule="nonzero" d="M1.39426-4.36612 662.648 206.797 659.86 215.529-1.39426 4.36612ZM661.256 211.163 656.707 195.277 678.721 216.74 648.341 221.473Z" transform="matrix(-1 0 0 1 2285.22 74.5001)"/><path fill="gray" fill-opacity="1" fill-rule="nonzero" d="M0.916904-4.49068 1044.47 208.581 1042.64 217.563-0.916904 4.49068ZM1043.56 213.073 1037.33 197.767 1061.52 216.74 1031.83 224.711Z" transform="matrix(-1 0 0 1 2668.02 74.5001)"/><path fill="gray" fill-opacity="1" fill-rule="nonzero" d="M0.680177-4.53258 1426.87 209.487 1425.51 218.552-0.680177 4.53258ZM1426.19 214.02 1419.17 199.062 1444.32 216.74 1415.08 226.257Z" transform="matrix(-1 0 0 1 3050.82 74.5001)"/><path fill="#B9D6E5" fill-opacity="1" fill-rule="evenodd" stroke="#0068B5" stroke-linecap="butt" stroke-linejoin="miter" stroke-miterlimit="4" stroke-opacity="1" stroke-width="4.583" d="M1361.5 1418.67C1361.5 1405.87 1371.87 1395.5 1384.67 1395.5L1827.33 1395.5C1840.13 1395.5 1850.5 1405.87 1850.5 1418.67L1850.5 1511.33C1850.5 1524.13 1840.13 1534.5 1827.33 1534.5L1384.67 1534.5C1371.87 1534.5 1361.5 1524.13 1361.5 1511.33Z"/><text fill="#000" fill-opacity="1" direction="ltr" font-family="Intel Clear,Intel Clear_MSFontService,sans-serif" font-size="37" font-stretch="normal" font-style="normal" font-variant="normal" font-weight="400" text-anchor="start" text-decoration="none" transform="matrix(1 0 0 1 1538 1454)" unicode-bidi="normal" writing-mode="lr-tb">Multiply<tspan x="-105.142" y="44" fill="#000" fill-opacity="1" direction="ltr" font-family="Intel Clear,Intel Clear_MSFontService,sans-serif" font-size="37" font-stretch="normal" font-style="normal" font-variant="normal" font-weight="400" text-anchor="start" text-decoration="none" unicode-bidi="normal" writing-mode="lr-tb">{f32} {1, 3, 299, 299}</tspan></text><path fill="#B9D6E5" fill-opacity="1" fill-rule="evenodd" stroke="#0068B5" stroke-linecap="butt" stroke-linejoin="miter" stroke-miterlimit="4" stroke-opacity="1" stroke-width="4.583" d="M1361.5 2844.67C1361.5 2831.87 1371.87 2821.5 1384.67 2821.5L1827.33 2821.5C1840.13 2821.5 1850.5 2831.87 1850.5 2844.67L1850.5 2937.33C1850.5 2950.13 1840.13 2960.5 1827.33 2960.5L1384.67 2960.5C1371.87 2960.5 1361.5 2950.13 1361.5 2937.33Z"/><text fill="#000" fill-opacity="1" direction="ltr" font-family="Intel Clear,Intel Clear_MSFontService,sans-serif" font-size="37" font-stretch="normal" font-style="normal" font-variant="normal" font-weight="400" text-anchor="start" text-decoration="none" transform="matrix(1 0 0 1 1503.62 2881)" unicode-bidi="normal" writing-mode="lr-tb">Convolution<tspan x="-70.767" y="44" fill="#000" fill-opacity="1" direction="ltr" font-family="Intel Clear,Intel Clear_MSFontService,sans-serif" font-size="37" font-stretch="normal" font-style="normal" font-variant="normal" font-weight="400" text-anchor="start" text-decoration="none" unicode-bidi="normal" writing-mode="lr-tb">{f32} {1, 6, 299, 299}</tspan></text><path fill="gray" fill-opacity="1" fill-rule="nonzero" d="M1611.08 1534.5 1611.08 2803.54 1601.92 2803.54 1601.92 1534.5ZM1606.5 2803.54 1620.25 2794.37 1606.5 2821.87 1592.75 2794.37Z"/><path fill="gray" fill-opacity="1" fill-rule="nonzero" d="M0.641637-4.5382 640.417 85.917 639.134 94.9934-0.641637 4.5382ZM639.776 90.4553 632.624 75.5574 657.928 93.0218 628.774 102.787Z" transform="matrix(-1 0 0 1 2264.43 1302.5)"/><path fill="#B9D6E5" fill-opacity="1" fill-rule="evenodd" stroke="#0068B5" stroke-linecap="butt" stroke-linejoin="miter" stroke-miterlimit="4" stroke-opacity="1" stroke-width="4.583" d="M1721.5-82.9993C1721.5-100.397 1735.6-114.5 1753-114.5L2051-114.5C2068.4-114.5 2082.5-100.397 2082.5-82.9993L2082.5 42.9994C2082.5 60.3968 2068.4 74.5001 2051 74.5001L1753 74.5001C1735.6 74.5001 1721.5 60.3968 1721.5 42.9994Z"/><text fill="#000" fill-opacity="1" direction="ltr" font-family="Intel Clear,Intel Clear_MSFontService,sans-serif" font-size="37" font-stretch="normal" font-style="normal" font-variant="normal" font-weight="400" text-anchor="start" text-decoration="none" transform="matrix(1 0 0 1 1826.75 -52)" unicode-bidi="normal" writing-mode="lr-tb">Constant<tspan x="-54.427" y="44" fill="#000" fill-opacity="1" direction="ltr" font-family="Intel Clear,Intel Clear_MSFontService,sans-serif" font-size="37" font-stretch="normal" font-style="normal" font-variant="normal" font-weight="400" text-anchor="start" text-decoration="none" unicode-bidi="normal" writing-mode="lr-tb">{f32} {1, 1, 1, 1}</tspan><tspan x="-36.942" y="88" fill="#000" fill-opacity="1" direction="ltr" font-family="Intel Clear,Intel Clear_MSFontService,sans-serif" font-size="37" font-stretch="normal" font-style="normal" font-variant="normal" font-weight="400" text-anchor="start" text-decoration="none" unicode-bidi="normal" writing-mode="lr-tb">Value:</tspan><tspan x="73.631" y="88" fill="#000" fill-opacity="1" direction="ltr" font-family="Intel Clear,Intel Clear_MSFontService,sans-serif" font-size="37" font-stretch="normal" font-style="normal" font-variant="normal" font-weight="400" text-anchor="start" text-decoration="none" unicode-bidi="normal" writing-mode="lr-tb">[</tspan><tspan x="86.235" y="88" fill="#000" fill-opacity="1" direction="ltr" font-family="Intel Clear,Intel Clear_MSFontService,sans-serif" font-size="37" font-stretch="normal" font-style="normal" font-variant="normal" font-weight="400" text-anchor="start" text-decoration="none" unicode-bidi="normal" writing-mode="lr-tb">-</tspan><tspan x="100.558" y="88" fill="#000" fill-opacity="1" direction="ltr" font-family="Intel Clear,Intel Clear_MSFontService,sans-serif" font-size="37" font-stretch="normal" font-style="normal" font-variant="normal" font-weight="400" text-anchor="start" text-decoration="none" unicode-bidi="normal" writing-mode="lr-tb">12.8]</tspan></text><path fill="#B9D6E5" fill-opacity="1" fill-rule="evenodd" stroke="#0068B5" stroke-linecap="butt" stroke-linejoin="miter" stroke-miterlimit="4" stroke-opacity="1" stroke-width="4.583" d="M2104.5-82.9993C2104.5-100.397 2118.6-114.5 2136-114.5L2434-114.5C2451.4-114.5 2465.5-100.397 2465.5-82.9993L2465.5 42.9994C2465.5 60.3968 2451.4 74.5001 2434 74.5001L2136 74.5001C2118.6 74.5001 2104.5 60.3968 2104.5 42.9994Z"/><text fill="#000" fill-opacity="1" direction="ltr" font-family="Intel Clear,Intel Clear_MSFontService,sans-serif" font-size="37" font-stretch="normal" font-style="normal" font-variant="normal" font-weight="400" text-anchor="start" text-decoration="none" transform="matrix(1 0 0 1 2209.55 -52)" unicode-bidi="normal" writing-mode="lr-tb">Constant<tspan x="-54.427" y="44" fill="#000" fill-opacity="1" direction="ltr" font-family="Intel Clear,Intel Clear_MSFontService,sans-serif" font-size="37" font-stretch="normal" font-style="normal" font-variant="normal" font-weight="400" text-anchor="start" text-decoration="none" unicode-bidi="normal" writing-mode="lr-tb">{f32} {1, 1, 1, 1}</tspan><tspan x="-29.791" y="88" fill="#000" fill-opacity="1" direction="ltr" font-family="Intel Clear,Intel Clear_MSFontService,sans-serif" font-size="37" font-stretch="normal" font-style="normal" font-variant="normal" font-weight="400" text-anchor="start" text-decoration="none" unicode-bidi="normal" writing-mode="lr-tb">Value:</tspan><tspan x="80.781" y="88" fill="#000" fill-opacity="1" direction="ltr" font-family="Intel Clear,Intel Clear_MSFontService,sans-serif" font-size="37" font-stretch="normal" font-style="normal" font-variant="normal" font-weight="400" text-anchor="start" text-decoration="none" unicode-bidi="normal" writing-mode="lr-tb">[12.7]</tspan></text><path fill="#B9D6E5" fill-opacity="1" fill-rule="evenodd" stroke="#0068B5" stroke-linecap="butt" stroke-linejoin="miter" stroke-miterlimit="4" stroke-opacity="1" stroke-width="4.583" d="M2487.5-82.9992C2487.5-100.397 2501.6-114.5 2519-114.5L2817-114.5C2834.4-114.5 2848.5-100.397 2848.5-82.9992L2848.5 42.9998C2848.5 60.3971 2834.4 74.5005 2817 74.5005L2519 74.5005C2501.6 74.5005 2487.5 60.3971 2487.5 42.9998Z"/><text fill="#000" fill-opacity="1" direction="ltr" font-family="Intel Clear,Intel Clear_MSFontService,sans-serif" font-size="37" font-stretch="normal" font-style="normal" font-variant="normal" font-weight="400" text-anchor="start" text-decoration="none" transform="matrix(1 0 0 1 2592.35 -52)" unicode-bidi="normal" writing-mode="lr-tb">Constant<tspan x="-54.427" y="44" fill="#000" fill-opacity="1" direction="ltr" font-family="Intel Clear,Intel Clear_MSFontService,sans-serif" font-size="37" font-stretch="normal" font-style="normal" font-variant="normal" font-weight="400" text-anchor="start" text-decoration="none" unicode-bidi="normal" writing-mode="lr-tb">{f32} {1, 1, 1, 1}</tspan><tspan x="-4.01" y="88" fill="#000" fill-opacity="1" direction="ltr" font-family="Intel Clear,Intel Clear_MSFontService,sans-serif" font-size="37" font-stretch="normal" font-style="normal" font-variant="normal" font-weight="400" text-anchor="start" text-decoration="none" unicode-bidi="normal" writing-mode="lr-tb">Value:</tspan><tspan x="106.563" y="88" fill="#000" fill-opacity="1" direction="ltr" font-family="Intel Clear,Intel Clear_MSFontService,sans-serif" font-size="37" font-stretch="normal" font-style="normal" font-variant="normal" font-weight="400" text-anchor="start" text-decoration="none" unicode-bidi="normal" writing-mode="lr-tb">[0</tspan>]</text><path fill="#B9D6E5" fill-opacity="1" fill-rule="evenodd" stroke="#0068B5" stroke-linecap="butt" stroke-linejoin="miter" stroke-miterlimit="4" stroke-opacity="1" stroke-width="4.583" d="M2869.5-82.9995C2869.5-100.397 2883.6-114.5 2901-114.5L3200-114.5C3217.4-114.5 3231.5-100.397 3231.5-82.9995L3231.5 42.9996C3231.5 60.3969 3217.4 74.5001 3200 74.5001L2901 74.5001C2883.6 74.5001 2869.5 60.3969 2869.5 42.9996Z"/><text fill="#000" fill-opacity="1" direction="ltr" font-family="Intel Clear,Intel Clear_MSFontService,sans-serif" font-size="37" font-stretch="normal" font-style="normal" font-variant="normal" font-weight="400" text-anchor="start" text-decoration="none" transform="matrix(1 0 0 1 2975.15 -52)" unicode-bidi="normal" writing-mode="lr-tb">Constant<tspan x="-54.427" y="44" fill="#000" fill-opacity="1" direction="ltr" font-family="Intel Clear,Intel Clear_MSFontService,sans-serif" font-size="37" font-stretch="normal" font-style="normal" font-variant="normal" font-weight="400" text-anchor="start" text-decoration="none" unicode-bidi="normal" writing-mode="lr-tb">{f32} {1, 1, 1, 1}</tspan><tspan x="-25.781" y="88" fill="#000" fill-opacity="1" direction="ltr" font-family="Intel Clear,Intel Clear_MSFontService,sans-serif" font-size="37" font-stretch="normal" font-style="normal" font-variant="normal" font-weight="400" text-anchor="start" text-decoration="none" unicode-bidi="normal" writing-mode="lr-tb">Value:</tspan><tspan x="84.792" y="88" fill="#000" fill-opacity="1" direction="ltr" font-family="Intel Clear,Intel Clear_MSFontService,sans-serif" font-size="37" font-stretch="normal" font-style="normal" font-variant="normal" font-weight="400" text-anchor="start" text-decoration="none" unicode-bidi="normal" writing-mode="lr-tb">[25</tspan><tspan x="140.938" y="88" fill="#000" fill-opacity="1" direction="ltr" font-family="Intel Clear,Intel Clear_MSFontService,sans-serif" font-size="37" font-stretch="normal" font-style="normal" font-variant="normal" font-weight="400" text-anchor="start" text-decoration="none" unicode-bidi="normal" writing-mode="lr-tb">5</tspan><tspan x="162.708" y="88" fill="#000" fill-opacity="1" direction="ltr" font-family="Intel Clear,Intel Clear_MSFontService,sans-serif" font-size="37" font-stretch="normal" font-style="normal" font-variant="normal" font-weight="400" text-anchor="start" text-decoration="none" unicode-bidi="normal" writing-mode="lr-tb">]</tspan></text><path fill="#B9D6E5" fill-opacity="1" fill-rule="evenodd" stroke="#0068B5" stroke-linecap="butt" stroke-linejoin="miter" stroke-miterlimit="4" stroke-opacity="1" stroke-width="4.583" d="M2019.5 1185.83C2019.5 1172.95 2029.95 1162.5 2042.83 1162.5L2485.17 1162.5C2498.05 1162.5 2508.5 1172.95 2508.5 1185.83L2508.5 1279.17C2508.5 1292.05 2498.05 1302.5 2485.17 1302.5L2042.83 1302.5C2029.95 1302.5 2019.5 1292.05 2019.5 1279.17Z"/><text fill="#000" fill-opacity="1" direction="ltr" font-family="Intel Clear,Intel Clear_MSFontService,sans-serif" font-size="37" font-stretch="normal" font-style="normal" font-variant="normal" font-weight="400" text-anchor="start" text-decoration="none" transform="matrix(1 0 0 1 2188.75 1222)" unicode-bidi="normal" writing-mode="lr-tb">Constant<tspan x="14.896" y="44" fill="#000" fill-opacity="1" direction="ltr" font-family="Intel Clear,Intel Clear_MSFontService,sans-serif" font-size="37" font-stretch="normal" font-style="normal" font-variant="normal" font-weight="400" text-anchor="start" text-decoration="none" unicode-bidi="normal" writing-mode="lr-tb">{f32} {}</tspan></text><path fill="#B9D6E5" fill-opacity="1" fill-rule="evenodd" stroke="#0068B5" stroke-linecap="butt" stroke-linejoin="miter" stroke-miterlimit="4" stroke-opacity="1" stroke-width="4.583" d="M1453.5 3045.5C1453.5 3037.22 1460.22 3030.5 1468.5 3030.5L1743.5 3030.5C1751.78 3030.5 1758.5 3037.22 1758.5 3045.5L1758.5 3105.5C1758.5 3113.78 1751.78 3120.5 1743.5 3120.5L1468.5 3120.5C1460.22 3120.5 1453.5 3113.78 1453.5 3105.5Z"/><text fill="#000" fill-opacity="1" direction="ltr" font-family="Intel Clear,Intel Clear_MSFontService,sans-serif" font-size="37" font-stretch="normal" font-style="normal" font-variant="normal" font-weight="400" text-anchor="start" text-decoration="none" transform="matrix(1 0 0 1 1554.03 3087)" unicode-bidi="normal" writing-mode="lr-tb">Result</text><path fill="url(#fill1)" fill-rule="evenodd" stroke="#0068B5" stroke-linecap="butt" stroke-linejoin="miter" stroke-miterlimit="4" stroke-opacity="1" stroke-width="4.583" d="M1361.5 967.667C1361.5 954.872 1371.87 944.5 1384.67 944.5L1827.33 944.5C1840.13 944.5 1850.5 954.872 1850.5 967.667L1850.5 1060.33C1850.5 1073.13 1840.13 1083.5 1827.33 1083.5L1384.67 1083.5C1371.87 1083.5 1361.5 1073.13 1361.5 1060.33Z"/><text fill="#000" fill-opacity="1" direction="ltr" font-family="Intel Clear,Intel Clear_MSFontService,sans-serif" font-size="37" font-stretch="normal" font-style="normal" font-variant="normal" font-weight="400" text-anchor="start" text-decoration="none" transform="matrix(1 0 0 1 1539.99 1004)" unicode-bidi="normal" writing-mode="lr-tb">Convert<tspan x="-107.136" y="44" fill="#000" fill-opacity="1" direction="ltr" font-family="Intel Clear,Intel Clear_MSFontService,sans-serif" font-size="37" font-stretch="normal" font-style="normal" font-variant="normal" font-weight="400" text-anchor="start" text-decoration="none" unicode-bidi="normal" writing-mode="lr-tb">{f32} {1, 3, 299, 299}</tspan></text><path fill="gray" fill-opacity="1" fill-rule="nonzero" d="M4.58333-4.03115e-05 4.58389 63.7321-4.58277 63.7322-4.58333 4.03115e-05ZM0.000560539 63.7322 13.7505 54.5654 0.000721785 82.0655-13.7495 54.5656Z" transform="matrix(-1 0 0 1 1606.5 1083.5)"/><path fill="gray" fill-opacity="1" fill-rule="nonzero" d="M1611.08 2960.5 1611.08 3011.25 1601.92 3011.25 1601.92 2960.5ZM1606.5 3011.25 1620.25 3002.08 1606.5 3029.58 1592.75 3002.08Z"/><path fill="url(#fill2)" fill-rule="evenodd" stroke="#0068B5" stroke-linecap="butt" stroke-linejoin="miter" stroke-miterlimit="4" stroke-opacity="1" stroke-width="4.583" d="M1361.5 563.667C1361.5 550.872 1371.87 540.5 1384.67 540.5L1827.33 540.5C1840.13 540.5 1850.5 550.872 1850.5 563.667L1850.5 656.333C1850.5 669.127 1840.13 679.5 1827.33 679.5L1384.67 679.5C1371.87 679.5 1361.5 669.127 1361.5 656.333Z"/><text fill="#000" fill-opacity="1" direction="ltr" font-family="Intel Clear,Intel Clear_MSFontService,sans-serif" font-size="37" font-stretch="normal" font-style="normal" font-variant="normal" font-weight="400" text-anchor="start" text-decoration="none" transform="matrix(1 0 0 1 1539.99 600)" unicode-bidi="normal" writing-mode="lr-tb">Convert<tspan x="-100.833" y="44" fill="#000" fill-opacity="1" direction="ltr" font-family="Intel Clear,Intel Clear_MSFontService,sans-serif" font-size="37" font-stretch="normal" font-style="normal" font-variant="normal" font-weight="400" text-anchor="start" text-decoration="none" unicode-bidi="normal" writing-mode="lr-tb">{u8} {1, 3, 299, 299}</tspan></text><path fill="gray" fill-opacity="1" fill-rule="nonzero" d="M4.58333-5.42451e-05 4.58384 42.6524-4.58283 42.6525-4.58333 5.42451e-05ZM0.000504804 42.6524 13.7504 33.4856 0.000721785 60.9858-13.7496 33.4859Z" transform="matrix(-1 0 0 1 1606.5 479.5)"/><path fill="gray" fill-opacity="1" fill-rule="nonzero" d="M1611.08 679.5 1611.08 926.027 1601.92 926.027 1601.92 679.5ZM1606.5 926.027 1620.25 916.86 1606.5 944.36 1592.75 916.861Z"/><path fill="#B9D6E5" fill-opacity="1" fill-rule="evenodd" stroke="#0068B5" stroke-linecap="butt" stroke-linejoin="miter" stroke-miterlimit="4" stroke-opacity="1" stroke-width="4.583" d="M1361.5 1189.67C1361.5 1176.87 1371.87 1166.5 1384.67 1166.5L1827.33 1166.5C1840.13 1166.5 1850.5 1176.87 1850.5 1189.67L1850.5 1282.33C1850.5 1295.13 1840.13 1305.5 1827.33 1305.5L1384.67 1305.5C1371.87 1305.5 1361.5 1295.13 1361.5 1282.33Z"/><text fill="#000" fill-opacity="1" direction="ltr" font-family="Intel Clear,Intel Clear_MSFontService,sans-serif" font-size="37" font-stretch="normal" font-style="normal" font-variant="normal" font-weight="400" text-anchor="start" text-decoration="none" transform="matrix(1 0 0 1 1535.13 1225)" unicode-bidi="normal" writing-mode="lr-tb">Subtrac<tspan x="128.333" y="0" fill="#000" fill-opacity="1" direction="ltr" font-family="Intel Clear,Intel Clear_MSFontService,sans-serif" font-size="37" font-stretch="normal" font-style="normal" font-variant="normal" font-weight="400" text-anchor="start" text-decoration="none" unicode-bidi="normal" writing-mode="lr-tb">t</tspan><tspan x="-102.277" y="44" fill="#000" fill-opacity="1" direction="ltr" font-family="Intel Clear,Intel Clear_MSFontService,sans-serif" font-size="37" font-stretch="normal" font-style="normal" font-variant="normal" font-weight="400" text-anchor="start" text-decoration="none" unicode-bidi="normal" writing-mode="lr-tb">{f32} {1, 3, 299, 299}</tspan></text><path fill="gray" fill-opacity="1" fill-rule="nonzero" d="M1611.08 1305.5 1611.08 1376.91 1601.92 1376.91 1601.92 1305.5ZM1606.5 1376.91 1620.25 1367.75 1606.5 1395.25 1592.75 1367.75Z"/><path fill="gray" fill-opacity="1" fill-rule="nonzero" d="M0.550853-4.55011 640.281 72.8979 639.179 81.9981-0.550853 4.55011ZM639.728 77.4477 632.28 62.6957 657.928 79.6511 628.975 89.9963Z" transform="matrix(-1 0 0 1 2264.43 1086.5)"/><path fill="#D7F3A2" fill-opacity="1" fill-rule="evenodd" stroke="#515A3D" stroke-linecap="butt" stroke-linejoin="miter" stroke-miterlimit="4" stroke-opacity="1" stroke-width="4.583" d="M2019.5 784.834C2019.5 771.947 2029.95 761.5 2042.83 761.5L2485.17 761.5C2498.05 761.5 2508.5 771.947 2508.5 784.834L2508.5 878.166C2508.5 891.053 2498.05 901.5 2485.17 901.5L2042.83 901.5C2029.95 901.5 2019.5 891.053 2019.5 878.166Z"/><text fill="#000" fill-opacity="1" direction="ltr" font-family="Intel Clear,Intel Clear_MSFontService,sans-serif" font-size="37" font-stretch="normal" font-style="normal" font-variant="normal" font-weight="400" text-anchor="start" text-decoration="none" transform="matrix(1 0 0 1 2188.75 821)" unicode-bidi="normal" writing-mode="lr-tb">Constant<tspan x="21.198" y="44" fill="#000" fill-opacity="1" direction="ltr" font-family="Intel Clear,Intel Clear_MSFontService,sans-serif" font-size="37" font-stretch="normal" font-style="normal" font-variant="normal" font-weight="400" text-anchor="start" text-decoration="none" unicode-bidi="normal" writing-mode="lr-tb">{</tspan><tspan x="34.948" y="44" fill="#000" fill-opacity="1" direction="ltr" font-family="Intel Clear,Intel Clear_MSFontService,sans-serif" font-size="37" font-stretch="normal" font-style="normal" font-variant="normal" font-weight="400" text-anchor="start" text-decoration="none" unicode-bidi="normal" writing-mode="lr-tb">u</tspan><tspan x="56.146" y="44" fill="#000" fill-opacity="1" direction="ltr" font-family="Intel Clear,Intel Clear_MSFontService,sans-serif" font-size="37" font-stretch="normal" font-style="normal" font-variant="normal" font-weight="400" text-anchor="start" text-decoration="none" unicode-bidi="normal" writing-mode="lr-tb">8} {}</tspan></text><path fill="url(#fill3)" fill-rule="evenodd" stroke="#0068B5" stroke-linecap="butt" stroke-linejoin="miter" stroke-miterlimit="4" stroke-opacity="1" stroke-width="4.583" d="M2019.5 970.667C2019.5 957.872 2029.87 947.5 2042.67 947.5L2485.33 947.5C2498.13 947.5 2508.5 957.872 2508.5 970.667L2508.5 1063.33C2508.5 1076.13 2498.13 1086.5 2485.33 1086.5L2042.67 1086.5C2029.87 1086.5 2019.5 1076.13 2019.5 1063.33Z"/><text fill="#000" fill-opacity="1" direction="ltr" font-family="Intel Clear,Intel Clear_MSFontService,sans-serif" font-size="37" font-stretch="normal" font-style="normal" font-variant="normal" font-weight="400" text-anchor="start" text-decoration="none" transform="matrix(1 0 0 1 2197.92 1006)" unicode-bidi="normal" writing-mode="lr-tb">Convert<tspan x="5.729" y="44" fill="#000" fill-opacity="1" direction="ltr" font-family="Intel Clear,Intel Clear_MSFontService,sans-serif" font-size="37" font-stretch="normal" font-style="normal" font-variant="normal" font-weight="400" text-anchor="start" text-decoration="none" unicode-bidi="normal" writing-mode="lr-tb">{f32} {}</tspan></text><path fill="gray" fill-opacity="1" fill-rule="nonzero" d="M2269.08 901.5 2269.08 929.165 2259.92 929.165 2259.92 901.5ZM2264.5 929.165 2278.25 919.998 2264.5 947.498 2250.75 919.998Z"/><rect width="1222" height="970" x="1974.5" y="1792.5" fill="#E9E9E9" fill-opacity="1" stroke="#AEAEAE" stroke-linecap="butt" stroke-linejoin="miter" stroke-miterlimit="4" stroke-opacity="1" stroke-width="4.583"/><text fill="#000" fill-opacity="1" direction="ltr" font-family="Intel Clear,Intel Clear_MSFontService,sans-serif" font-size="55" font-stretch="normal" font-style="normal" font-variant="normal" font-weight="400" text-anchor="start" text-decoration="none" transform="matrix(1 0 0 1 2511.29 1866)" unicode-bidi="normal" writing-mode="lr-tb">Dequantization on weights</text><path fill="gray" fill-opacity="1" fill-rule="nonzero" d="M1.01199-4.47022 641.059 140.426 639.035 149.367-1.01199 4.47022ZM640.048 144.897 634.143 129.462 657.929 148.945 628.072 156.283Z" transform="matrix(-1 0 0 1 2264.43 2672.5)"/><path fill="gray" fill-opacity="1" fill-rule="nonzero" d="M2269.08 1761.5 2269.08 2089.49 2259.92 2089.49 2259.92 1761.5ZM2264.5 2089.49 2278.25 2080.32 2264.5 2107.82 2250.75 2080.32Z"/><path fill="gray" fill-opacity="1" fill-rule="nonzero" d="M0.479782-4.55815 524.514 50.6007 523.555 59.717-0.479782 4.55815ZM524.035 55.1589 516.358 40.5249 542.268 57.078 513.479 67.8738Z" transform="matrix(-1 0 0 1 2806.77 2476.5)"/><path fill="#D7F3A2" fill-opacity="1" fill-rule="evenodd" stroke="#515A3D" stroke-linecap="butt" stroke-linejoin="miter" stroke-miterlimit="4" stroke-opacity="1" stroke-width="4.583" d="M2019.5 1645.67C2019.5 1632.87 2029.87 1622.5 2042.67 1622.5L2485.33 1622.5C2498.13 1622.5 2508.5 1632.87 2508.5 1645.67L2508.5 1738.33C2508.5 1751.13 2498.13 1761.5 2485.33 1761.5L2042.67 1761.5C2029.87 1761.5 2019.5 1751.13 2019.5 1738.33Z"/><text fill="#000" fill-opacity="1" direction="ltr" font-family="Intel Clear,Intel Clear_MSFontService,sans-serif" font-size="37" font-stretch="normal" font-style="normal" font-variant="normal" font-weight="400" text-anchor="start" text-decoration="none" transform="matrix(1 0 0 1 2188.74 1682)" unicode-bidi="normal" writing-mode="lr-tb">Constant<tspan x="-42.098" y="44" fill="#000" fill-opacity="1" direction="ltr" font-family="Intel Clear,Intel Clear_MSFontService,sans-serif" font-size="37" font-stretch="normal" font-style="normal" font-variant="normal" font-weight="400" text-anchor="start" text-decoration="none" unicode-bidi="normal" writing-mode="lr-tb">{i8} {6, 3, 1, 1}</tspan></text><path fill="#B9D6E5" fill-opacity="1" fill-rule="evenodd" stroke="#515A3D" stroke-linecap="butt" stroke-linejoin="miter" stroke-miterlimit="4" stroke-opacity="1" stroke-width="4.583" d="M2019.5 2556.67C2019.5 2543.87 2029.87 2533.5 2042.67 2533.5L2485.33 2533.5C2498.13 2533.5 2508.5 2543.87 2508.5 2556.67L2508.5 2649.33C2508.5 2662.13 2498.13 2672.5 2485.33 2672.5L2042.67 2672.5C2029.87 2672.5 2019.5 2662.13 2019.5 2649.33Z"/><text fill="#000" fill-opacity="1" direction="ltr" font-family="Intel Clear,Intel Clear_MSFontService,sans-serif" font-size="37" font-stretch="normal" font-style="normal" font-variant="normal" font-weight="400" text-anchor="start" text-decoration="none" transform="matrix(1 0 0 1 2195.93 2593)" unicode-bidi="normal" writing-mode="lr-tb">Multiply<tspan x="-61.6" y="44" fill="#000" fill-opacity="1" direction="ltr" font-family="Intel Clear,Intel Clear_MSFontService,sans-serif" font-size="37" font-stretch="normal" font-style="normal" font-variant="normal" font-weight="400" text-anchor="start" text-decoration="none" unicode-bidi="normal" writing-mode="lr-tb">{f32} {6, 3, 1, 1}</tspan></text><path fill="url(#fill4)" fill-rule="evenodd" stroke="#0068B5" stroke-linecap="butt" stroke-linejoin="miter" stroke-miterlimit="4" stroke-opacity="1" stroke-width="4.583" d="M2019.5 2130.83C2019.5 2117.95 2029.95 2107.5 2042.83 2107.5L2485.17 2107.5C2498.05 2107.5 2508.5 2117.95 2508.5 2130.83L2508.5 2224.17C2508.5 2237.05 2498.05 2247.5 2485.17 2247.5L2042.83 2247.5C2029.95 2247.5 2019.5 2237.05 2019.5 2224.17Z"/><text fill="#000" fill-opacity="1" direction="ltr" font-family="Intel Clear,Intel Clear_MSFontService,sans-serif" font-size="37" font-stretch="normal" font-style="normal" font-variant="normal" font-weight="400" text-anchor="start" text-decoration="none" transform="matrix(1 0 0 1 2197.92 2167)" unicode-bidi="normal" writing-mode="lr-tb">Convert<tspan x="-63.594" y="44" fill="#000" fill-opacity="1" direction="ltr" font-family="Intel Clear,Intel Clear_MSFontService,sans-serif" font-size="37" font-stretch="normal" font-style="normal" font-variant="normal" font-weight="400" text-anchor="start" text-decoration="none" unicode-bidi="normal" writing-mode="lr-tb">{f32} {6, 3, 1, 1}</tspan></text><path fill="gray" fill-opacity="1" fill-rule="nonzero" d="M2269.08 2247.5 2269.08 2297.45 2259.92 2297.45 2259.92 2247.5ZM2264.5 2297.45 2278.25 2288.28 2264.5 2315.78 2250.75 2288.28Z"/><path fill="#B9D6E5" fill-opacity="1" fill-rule="evenodd" stroke="#0068B5" stroke-linecap="butt" stroke-linejoin="miter" stroke-miterlimit="4" stroke-opacity="1" stroke-width="4.583" d="M2562.5 2360.67C2562.5 2347.87 2572.87 2337.5 2585.67 2337.5L3027.33 2337.5C3040.13 2337.5 3050.5 2347.87 3050.5 2360.67L3050.5 2453.33C3050.5 2466.13 3040.13 2476.5 3027.33 2476.5L2585.67 2476.5C2572.87 2476.5 2562.5 2466.13 2562.5 2453.33Z"/><text fill="#000" fill-opacity="1" direction="ltr" font-family="Intel Clear,Intel Clear_MSFontService,sans-serif" font-size="37" font-stretch="normal" font-style="normal" font-variant="normal" font-weight="400" text-anchor="start" text-decoration="none" transform="matrix(1 0 0 1 2731.02 2396)" unicode-bidi="normal" writing-mode="lr-tb">Constant<tspan x="-54.427" y="44" fill="#000" fill-opacity="1" direction="ltr" font-family="Intel Clear,Intel Clear_MSFontService,sans-serif" font-size="37" font-stretch="normal" font-style="normal" font-variant="normal" font-weight="400" text-anchor="start" text-decoration="none" unicode-bidi="normal" writing-mode="lr-tb">{f32} {6, 1, 1, 1}</tspan></text><path fill="#B9D6E5" fill-opacity="1" fill-rule="evenodd" stroke="#0068B5" stroke-linecap="butt" stroke-linejoin="miter" stroke-miterlimit="4" stroke-opacity="1" stroke-width="4.583" d="M2019.5 2338.67C2019.5 2325.87 2029.87 2315.5 2042.67 2315.5L2485.33 2315.5C2498.13 2315.5 2508.5 2325.87 2508.5 2338.67L2508.5 2431.33C2508.5 2444.13 2498.13 2454.5 2485.33 2454.5L2042.67 2454.5C2029.87 2454.5 2019.5 2444.13 2019.5 2431.33Z"/><text fill="#000" fill-opacity="1" direction="ltr" font-family="Intel Clear,Intel Clear_MSFontService,sans-serif" font-size="37" font-stretch="normal" font-style="normal" font-variant="normal" font-weight="400" text-anchor="start" text-decoration="none" transform="matrix(1 0 0 1 2193.06 2375)" unicode-bidi="normal" writing-mode="lr-tb">Subtrac<tspan x="128.334" y="0" fill="#000" fill-opacity="1" direction="ltr" font-family="Intel Clear,Intel Clear_MSFontService,sans-serif" font-size="37" font-stretch="normal" font-style="normal" font-variant="normal" font-weight="400" text-anchor="start" text-decoration="none" unicode-bidi="normal" writing-mode="lr-tb">t</tspan><tspan x="-58.735" y="44" fill="#000" fill-opacity="1" direction="ltr" font-family="Intel Clear,Intel Clear_MSFontService,sans-serif" font-size="37" font-stretch="normal" font-style="normal" font-variant="normal" font-weight="400" text-anchor="start" text-decoration="none" unicode-bidi="normal" writing-mode="lr-tb">{f32} {6, 3, 1, 1}</tspan></text><path fill="gray" fill-opacity="1" fill-rule="nonzero" d="M0.574223-4.54722 516.139 60.5584 514.991 69.6528-0.574223 4.54722ZM515.565 65.1055 508.193 50.3154 533.754 67.4024 504.748 77.5988Z" transform="matrix(-1 0 0 1 2798.25 2248.5)"/><path fill="#D7F3A2" fill-opacity="1" fill-rule="evenodd" stroke="#515A3D" stroke-linecap="butt" stroke-linejoin="miter" stroke-miterlimit="4" stroke-opacity="1" stroke-width="4.583" d="M2553.5 1934.67C2553.5 1921.87 2563.87 1911.5 2576.67 1911.5L3018.33 1911.5C3031.13 1911.5 3041.5 1921.87 3041.5 1934.67L3041.5 2027.33C3041.5 2040.13 3031.13 2050.5 3018.33 2050.5L2576.67 2050.5C2563.87 2050.5 2553.5 2040.13 2553.5 2027.33Z"/><text fill="#000" fill-opacity="1" direction="ltr" font-family="Intel Clear,Intel Clear_MSFontService,sans-serif" font-size="37" font-stretch="normal" font-style="normal" font-variant="normal" font-weight="400" text-anchor="start" text-decoration="none" transform="matrix(1 0 0 1 2722.5 1970)" unicode-bidi="normal" writing-mode="lr-tb">Constant<tspan x="-42.098" y="44" fill="#000" fill-opacity="1" direction="ltr" font-family="Intel Clear,Intel Clear_MSFontService,sans-serif" font-size="37" font-stretch="normal" font-style="normal" font-variant="normal" font-weight="400" text-anchor="start" text-decoration="none" unicode-bidi="normal" writing-mode="lr-tb">{i8} {6, 1, 1, 1}</tspan></text><path fill="url(#fill5)" fill-rule="evenodd" stroke="#0068B5" stroke-linecap="butt" stroke-linejoin="miter" stroke-miterlimit="4" stroke-opacity="1" stroke-width="4.583" d="M2553.5 2131.83C2553.5 2118.95 2563.95 2108.5 2576.83 2108.5L3018.17 2108.5C3031.05 2108.5 3041.5 2118.95 3041.5 2131.83L3041.5 2225.17C3041.5 2238.05 3031.05 2248.5 3018.17 2248.5L2576.83 2248.5C2563.95 2248.5 2553.5 2238.05 2553.5 2225.17Z"/><text fill="#000" fill-opacity="1" direction="ltr" font-family="Intel Clear,Intel Clear_MSFontService,sans-serif" font-size="37" font-stretch="normal" font-style="normal" font-variant="normal" font-weight="400" text-anchor="start" text-decoration="none" transform="matrix(1 0 0 1 2731.67 2168)" unicode-bidi="normal" writing-mode="lr-tb">Convert<tspan x="-63.594" y="44" fill="#000" fill-opacity="1" direction="ltr" font-family="Intel Clear,Intel Clear_MSFontService,sans-serif" font-size="37" font-stretch="normal" font-style="normal" font-variant="normal" font-weight="400" text-anchor="start" text-decoration="none" unicode-bidi="normal" writing-mode="lr-tb">{f32} {6, 1, 1, 1}</tspan></text><path fill="gray" fill-opacity="1" fill-rule="nonzero" d="M2802.08 2050.5 2802.08 2090.7 2792.92 2090.7 2792.92 2050.5ZM2797.5 2090.7 2811.25 2081.53 2797.5 2109.03 2783.75 2081.53Z"/><path fill="gray" fill-opacity="1" fill-rule="nonzero" d="M2269.08 2454.5 2269.08 2514.86 2259.92 2514.86 2259.92 2454.5ZM2264.5 2514.86 2278.25 2505.69 2264.5 2533.19 2250.75 2505.69Z"/></g></svg>